<svg version="1.1" viewBox="0.0 0.0 376.0 602.0" fill="none" stroke="none" stroke-linecap="square" stroke-miterlimit="10" width="376" height="602" xmlns:xlink="http://www.w3.org/1999/xlink" xmlns="http://www.w3.org/2000/svg"><path fill="#ffffff" d="M0 0L376.0 0L376.0 602.0L0 602.0L0 0Z" fill-rule="nonzero"/><path stroke="#333333" stroke-width="1.0" stroke-linecap="butt" d="M83.5 57.5L83.5 519.5" fill-rule="nonzero"/><path stroke="#cccccc" stroke-width="1.0" stroke-linecap="butt" d="M117.5 57.5L117.5 519.5" fill-rule="nonzero"/><path stroke="#cccccc" stroke-width="1.0" stroke-linecap="butt" d="M152.5 57.5L152.5 519.5" fill-rule="nonzero"/><path stroke="#cccccc" stroke-width="1.0" stroke-linecap="butt" d="M186.5 57.5L186.5 519.5" fill-rule="nonzero"/><path stroke="#cccccc" stroke-width="1.0" stroke-linecap="butt" d="M220.5 57.5L220.5 519.5" fill-rule="nonzero"/><path stroke="#cccccc" stroke-width="1.0" stroke-linecap="butt" d="M254.5 57.5L254.5 519.5" fill-rule="nonzero"/><path stroke="#cccccc" stroke-width="1.0" stroke-linecap="butt" d="M288.5 57.5L288.5 519.5" fill-rule="nonzero"/><path stroke="#cccccc" stroke-width="1.0" stroke-linecap="butt" d="M323.5 57.5L323.5 519.5" fill-rule="nonzero"/><path stroke="#cccccc" stroke-width="1.0" stroke-linecap="butt" d="M357.5 57.5L357.5 519.5" fill-rule="nonzero"/><path stroke="#e6e6e6" stroke-width="1.0" stroke-linecap="butt" d="M90.5 57.5L90.5 519.5" fill-rule="nonzero"/><path stroke="#e6e6e6" stroke-width="1.0" stroke-linecap="butt" d="M97.5 57.5L97.5 519.5" fill-rule="nonzero"/><path stroke="#e6e6e6" stroke-width="1.0" stroke-linecap="butt" d="M104.5 57.5L104.5 519.5" fill-rule="nonzero"/><path stroke="#e6e6e6" stroke-width="1.0" stroke-linecap="butt" d="M111.5 57.5L111.5 519.5" fill-rule="nonzero"/><path stroke="#e6e6e6" stroke-width="1.0" stroke-linecap="butt" d="M124.5 57.5L124.5 519.5" fill-rule="nonzero"/><path stroke="#e6e6e6" stroke-width="1.0" stroke-linecap="butt" d="M131.5 57.5L131.5 519.5" fill-rule="nonzero"/><path stroke="#e6e6e6" stroke-width="1.0" stroke-linecap="butt" d="M138.5 57.5L138.5 519.5" fill-rule="nonzero"/><path stroke="#e6e6e6" stroke-width="1.0" stroke-linecap="butt" d="M145.5 57.5L145.5 519.5" fill-rule="nonzero"/><path stroke="#e6e6e6" stroke-width="1.0" stroke-linecap="butt" d="M158.5 57.5L158.5 519.5" fill-rule="nonzero"/><path stroke="#e6e6e6" stroke-width="1.0" stroke-linecap="butt" d="M165.5 57.5L165.5 519.5" fill-rule="nonzero"/><path stroke="#e6e6e6" stroke-width="1.0" stroke-linecap="butt" d="M172.5 57.5L172.5 519.5" fill-rule="nonzero"/><path stroke="#e6e6e6" stroke-width="1.0" stroke-linecap="butt" d="M179.5 57.5L179.5 519.5" fill-rule="nonzero"/><path stroke="#e6e6e6" stroke-width="1.0" stroke-linecap="butt" d="M193.5 57.5L193.5 519.5" fill-rule="nonzero"/><path stroke="#e6e6e6" stroke-width="1.0" stroke-linecap="butt" d="M199.5 57.5L199.5 519.5" fill-rule="nonzero"/><path stroke="#e6e6e6" stroke-width="1.0" stroke-linecap="butt" d="M206.5 57.5L206.5 519.5" fill-rule="nonzero"/><path stroke="#e6e6e6" stroke-width="1.0" stroke-linecap="butt" d="M213.5 57.5L213.5 519.5" fill-rule="nonzero"/><path stroke="#e6e6e6" stroke-width="1.0" stroke-linecap="butt" d="M227.5 57.5L227.5 519.5" fill-rule="nonzero"/><path stroke="#e6e6e6" stroke-width="1.0" stroke-linecap="butt" d="M234.5 57.5L234.5 519.5" fill-rule="nonzero"/><path stroke="#e6e6e6" stroke-width="1.0" stroke-linecap="butt" d="M241.5 57.5L241.5 519.5" fill-rule="nonzero"/><path stroke="#e6e6e6" stroke-width="1.0" stroke-linecap="butt" d="M247.5 57.5L247.5 519.5" fill-rule="nonzero"/><path stroke="#e6e6e6" stroke-width="1.0" stroke-linecap="butt" d="M261.5 57.5L261.5 519.5" fill-rule="nonzero"/><path stroke="#e6e6e6" stroke-width="1.0" stroke-linecap="butt" d="M268.5 57.5L268.5 519.5" fill-rule="nonzero"/><path stroke="#e6e6e6" stroke-width="1.0" stroke-linecap="butt" d="M275.5 57.5L275.5 519.5" fill-rule="nonzero"/><path stroke="#e6e6e6" stroke-width="1.0" stroke-linecap="butt" d="M282.5 57.5L282.5 519.5" fill-rule="nonzero"/><path stroke="#e6e6e6" stroke-width="1.0" stroke-linecap="butt" d="M295.5 57.5L295.5 519.5" fill-rule="nonzero"/><path stroke="#e6e6e6" stroke-width="1.0" stroke-linecap="butt" d="M302.5 57.5L302.5 519.5" fill-rule="nonzero"/><path stroke="#e6e6e6" stroke-width="1.0" stroke-linecap="butt" d="M309.5 57.5L309.5 519.5" fill-rule="nonzero"/><path stroke="#e6e6e6" stroke-width="1.0" stroke-linecap="butt" d="M316.5 57.5L316.5 519.5" fill-rule="nonzero"/><path stroke="#e6e6e6" stroke-width="1.0" stroke-linecap="butt" d="M329.5 57.5L329.5 519.5" fill-rule="nonzero"/><path stroke="#e6e6e6" stroke-width="1.0" stroke-linecap="butt" d="M336.5 57.5L336.5 519.5" fill-rule="nonzero"/><path stroke="#e6e6e6" stroke-width="1.0" stroke-linecap="butt" d="M343.5 57.5L343.5 519.5" fill-rule="nonzero"/><path stroke="#e6e6e6" stroke-width="1.0" stroke-linecap="butt" d="M350.5 57.5L350.5 519.5" fill-rule="nonzero"/><path stroke="#333333" stroke-width="1.0" stroke-linecap="butt" d="M83.5 519.5L357.5 519.5" fill-rule="nonzero"/><path stroke="#cccccc" stroke-width="1.0" stroke-linecap="butt" d="M83.5 490.5L357.5 490.5" fill-rule="nonzero"/><path stroke="#cccccc" stroke-width="1.0" stroke-linecap="butt" d="M83.5 461.5L357.5 461.5" fill-rule="nonzero"/><path stroke="#cccccc" stroke-width="1.0" stroke-linecap="butt" d="M83.5 432.5L357.5 432.5" fill-rule="nonzero"/><path stroke="#cccccc" stroke-width="1.0" stroke-linecap="butt" d="M83.5 403.5L357.5 403.5" fill-rule="nonzero"/><path stroke="#cccccc" stroke-width="1.0" stroke-linecap="butt" d="M83.5 374.5L357.5 374.5" fill-rule="nonzero"/><path stroke="#cccccc" stroke-width="1.0" stroke-linecap="butt" d="M83.5 346.5L357.5 346.5" fill-rule="nonzero"/><path stroke="#cccccc" stroke-width="1.0" stroke-linecap="butt" d="M83.5 317.5L357.5 317.5" fill-rule="nonzero"/><path stroke="#cccccc" stroke-width="1.0" stroke-linecap="butt" d="M83.5 288.5L357.5 288.5" fill-rule="nonzero"/><path stroke="#cccccc" stroke-width="1.0" stroke-linecap="butt" d="M83.5 259.5L357.5 259.5" fill-rule="nonzero"/><path stroke="#cccccc" stroke-width="1.0" stroke-linecap="butt" d="M83.5 230.5L357.5 230.5" fill-rule="nonzero"/><path stroke="#cccccc" stroke-width="1.0" stroke-linecap="butt" d="M83.5 201.5L357.5 201.5" fill-rule="nonzero"/><path stroke="#cccccc" stroke-width="1.0" stroke-linecap="butt" d="M83.5 172.5L357.5 172.5" fill-rule="nonzero"/><path stroke="#cccccc" stroke-width="1.0" stroke-linecap="butt" d="M83.5 143.5L357.5 143.5" fill-rule="nonzero"/><path stroke="#cccccc" stroke-width="1.0" stroke-linecap="butt" d="M83.5 115.5L357.5 115.5" fill-rule="nonzero"/><path stroke="#cccccc" stroke-width="1.0" stroke-linecap="butt" d="M83.5 86.5L357.5 86.5" fill-rule="nonzero"/><path stroke="#cccccc" stroke-width="1.0" stroke-linecap="butt" d="M83.5 57.5L357.5 57.5" fill-rule="nonzero"/><path stroke="#cccccc" stroke-width="1.0" stroke-linecap="butt" d="M83.5 513.5L357.5 513.5" fill-rule="nonzero"/><path stroke="#cccccc" stroke-width="1.0" stroke-linecap="butt" d="M83.5 507.5L357.5 507.5" fill-rule="nonzero"/><path stroke="#cccccc" stroke-width="1.0" stroke-linecap="butt" d="M83.5 501.5L357.5 501.5" fill-rule="nonzero"/><path stroke="#cccccc" stroke-width="1.0" stroke-linecap="butt" d="M83.5 496.5L357.5 496.5" fill-rule="nonzero"/><path stroke="#cccccc" stroke-width="1.0" stroke-linecap="butt" d="M83.5 484.5L357.5 484.5" fill-rule="nonzero"/><path stroke="#cccccc" stroke-width="1.0" stroke-linecap="butt" d="M83.5 478.5L357.5 478.5" fill-rule="nonzero"/><path stroke="#cccccc" stroke-width="1.0" stroke-linecap="butt" d="M83.5 473.5L357.5 473.5" fill-rule="nonzero"/><path stroke="#cccccc" stroke-width="1.0" stroke-linecap="butt" d="M83.5 467.5L357.5 467.5" fill-rule="nonzero"/><path stroke="#cccccc" stroke-width="1.0" stroke-linecap="butt" d="M83.5 455.5L357.5 455.5" fill-rule="nonzero"/><path stroke="#cccccc" stroke-width="1.0" stroke-linecap="butt" d="M83.5 449.5L357.5 449.5" fill-rule="nonzero"/><path stroke="#cccccc" stroke-width="1.0" stroke-linecap="butt" d="M83.5 444.5L357.5 444.5" fill-rule="nonzero"/><path stroke="#cccccc" stroke-width="1.0" stroke-linecap="butt" d="M83.5 438.5L357.5 438.5" fill-rule="nonzero"/><path stroke="#cccccc" stroke-width="1.0" stroke-linecap="butt" d="M83.5 426.5L357.5 426.5" fill-rule="nonzero"/><path stroke="#cccccc" stroke-width="1.0" stroke-linecap="butt" d="M83.5 421.5L357.5 421.5" fill-rule="nonzero"/><path stroke="#cccccc" stroke-width="1.0" stroke-linecap="butt" d="M83.5 415.5L357.5 415.5" fill-rule="nonzero"/><path stroke="#cccccc" stroke-width="1.0" stroke-linecap="butt" d="M83.5 409.5L357.5 409.5" fill-rule="nonzero"/><path stroke="#cccccc" stroke-width="1.0" stroke-linecap="butt" d="M83.5 397.5L357.5 397.5" fill-rule="nonzero"/><path stroke="#cccccc" stroke-width="1.0" stroke-linecap="butt" d="M83.5 392.5L357.5 392.5" fill-rule="nonzero"/><path stroke="#cccccc" stroke-width="1.0" stroke-linecap="butt" d="M83.5 386.5L357.5 386.5" fill-rule="nonzero"/><path stroke="#cccccc" stroke-width="1.0" stroke-linecap="butt" d="M83.5 380.5L357.5 380.5" fill-rule="nonzero"/><path stroke="#cccccc" stroke-width="1.0" stroke-linecap="butt" d="M83.5 369.5L357.5 369.5" fill-rule="nonzero"/><path stroke="#cccccc" stroke-width="1.0" stroke-linecap="butt" d="M83.5 363.5L357.5 363.5" fill-rule="nonzero"/><path stroke="#cccccc" stroke-width="1.0" stroke-linecap="butt" d="M83.5 357.5L357.5 357.5" fill-rule="nonzero"/><path stroke="#cccccc" stroke-width="1.0" stroke-linecap="butt" d="M83.5 351.5L357.5 351.5" fill-rule="nonzero"/><path stroke="#cccccc" stroke-width="1.0" stroke-linecap="butt" d="M83.5 340.5L357.5 340.5" fill-rule="nonzero"/><path stroke="#cccccc" stroke-width="1.0" stroke-linecap="butt" d="M83.5 334.5L357.5 334.5" fill-rule="nonzero"/><path stroke="#cccccc" stroke-width="1.0" stroke-linecap="butt" d="M83.5 328.5L357.5 328.5" fill-rule="nonzero"/><path stroke="#cccccc" stroke-width="1.0" stroke-linecap="butt" d="M83.5 322.5L357.5 322.5" fill-rule="nonzero"/><path stroke="#cccccc" stroke-width="1.0" stroke-linecap="butt" d="M83.5 311.5L357.5 311.5" fill-rule="nonzero"/><path stroke="#cccccc" stroke-width="1.0" stroke-linecap="butt" d="M83.5 305.5L357.5 305.5" fill-rule="nonzero"/><path stroke="#cccccc" stroke-width="1.0" stroke-linecap="butt" d="M83.5 299.5L357.5 299.5" fill-rule="nonzero"/><path stroke="#cccccc" stroke-width="1.0" stroke-linecap="butt" d="M83.5 294.5L357.5 294.5" fill-rule="nonzero"/><path stroke="#cccccc" stroke-width="1.0" stroke-linecap="butt" d="M83.5 282.5L357.5 282.5" fill-rule="nonzero"/><path stroke="#cccccc" stroke-width="1.0" stroke-linecap="butt" d="M83.5 276.5L357.5 276.5" fill-rule="nonzero"/><path stroke="#cccccc" stroke-width="1.0" stroke-linecap="butt" d="M83.5 270.5L357.5 270.5" fill-rule="nonzero"/><path stroke="#cccccc" stroke-width="1.0" stroke-linecap="butt" d="M83.5 265.5L357.5 265.5" fill-rule="nonzero"/><path stroke="#cccccc" stroke-width="1.0" stroke-linecap="butt" d="M83.5 253.5L357.5 253.5" fill-rule="nonzero"/><path stroke="#cccccc" stroke-width="1.0" stroke-linecap="butt" d="M83.5 247.5L357.5 247.5" fill-rule="nonzero"/><path stroke="#cccccc" stroke-width="1.0" stroke-linecap="butt" d="M83.5 242.5L357.5 242.5" fill-rule="nonzero"/><path stroke="#cccccc" stroke-width="1.0" stroke-linecap="butt" d="M83.5 236.5L357.5 236.5" fill-rule="nonzero"/><path stroke="#cccccc" stroke-width="1.0" stroke-linecap="butt" d="M83.5 224.5L357.5 224.5" fill-rule="nonzero"/><path stroke="#cccccc" stroke-width="1.0" stroke-linecap="butt" d="M83.5 218.5L357.5 218.5" fill-rule="nonzero"/><path stroke="#cccccc" stroke-width="1.0" stroke-linecap="butt" d="M83.5 213.5L357.5 213.5" fill-rule="nonzero"/><path stroke="#cccccc" stroke-width="1.0" stroke-linecap="butt" d="M83.5 207.5L357.5 207.5" fill-rule="nonzero"/><path stroke="#cccccc" stroke-width="1.0" stroke-linecap="butt" d="M83.5 195.5L357.5 195.5" fill-rule="nonzero"/><path stroke="#cccccc" stroke-width="1.0" stroke-linecap="butt" d="M83.5 190.5L357.5 190.5" fill-rule="nonzero"/><path stroke="#cccccc" stroke-width="1.0" stroke-linecap="butt" d="M83.5 184.5L357.5 184.5" fill-rule="nonzero"/><path stroke="#cccccc" stroke-width="1.0" stroke-linecap="butt" d="M83.5 178.5L357.5 178.5" fill-rule="nonzero"/><path stroke="#cccccc" stroke-width="1.0" stroke-linecap="butt" d="M83.5 167.5L357.5 167.5" fill-rule="nonzero"/><path stroke="#cccccc" stroke-width="1.0" stroke-linecap="butt" d="M83.5 161.5L357.5 161.5" fill-rule="nonzero"/><path stroke="#cccccc" stroke-width="1.0" stroke-linecap="butt" d="M83.5 155.5L357.5 155.5" fill-rule="nonzero"/><path stroke="#cccccc" stroke-width="1.0" stroke-linecap="butt" d="M83.5 149.5L357.5 149.5" fill-rule="nonzero"/><path stroke="#cccccc" stroke-width="1.0" stroke-linecap="butt" d="M83.5 138.5L357.5 138.5" fill-rule="nonzero"/><path stroke="#cccccc" stroke-width="1.0" stroke-linecap="butt" d="M83.5 132.5L357.5 132.5" fill-rule="nonzero"/><path stroke="#cccccc" stroke-width="1.0" stroke-linecap="butt" d="M83.5 126.5L357.5 126.5" fill-rule="nonzero"/><path stroke="#cccccc" stroke-width="1.0" stroke-linecap="butt" d="M83.5 120.5L357.5 120.5" fill-rule="nonzero"/><path stroke="#cccccc" stroke-width="1.0" stroke-linecap="butt" d="M83.5 109.5L357.5 109.5" fill-rule="nonzero"/><path stroke="#cccccc" stroke-width="1.0" stroke-linecap="butt" d="M83.5 103.5L357.5 103.5" fill-rule="nonzero"/><path stroke="#cccccc" stroke-width="1.0" stroke-linecap="butt" d="M83.5 97.5L357.5 97.5" fill-rule="nonzero"/><path stroke="#cccccc" stroke-width="1.0" stroke-linecap="butt" d="M83.5 91.5L357.5 91.5" fill-rule="nonzero"/><path stroke="#cccccc" stroke-width="1.0" stroke-linecap="butt" d="M83.5 80.5L357.5 80.5" fill-rule="nonzero"/><path stroke="#cccccc" stroke-width="1.0" stroke-linecap="butt" d="M83.5 74.5L357.5 74.5" fill-rule="nonzero"/><path stroke="#cccccc" stroke-width="1.0" stroke-linecap="butt" d="M83.5 68.5L357.5 68.5" fill-rule="nonzero"/><path stroke="#cccccc" stroke-width="1.0" stroke-linecap="butt" d="M83.5 63.5L357.5 63.5" fill-rule="nonzero"/><path stroke="#000000" stroke-width="1.0" stroke-linecap="butt" d="M357.5 519.5L83.5 519.5" fill-rule="nonzero"/><path stroke="#000000" stroke-width="1.0" stroke-linecap="butt" d="M83.5 519.5L83.5 57.5" fill-rule="nonzero"/><clipPath id="id_0"><path d="M83.8 57.333332L357.2 57.333332L357.2 519.2L83.8 519.2L83.8 57.333332Z" clip-rule="nonzero"/></clipPath><path stroke="#4285f4" stroke-width="1.0" stroke-linecap="butt" stroke-dasharray="1.0,2.0" clip-path="url(#id_0)" d="M308.63553 -29.266666L294.75677 -0.4L282.49185 28.466667L271.57474 57.333332L258.16223 86.2L245.76683 115.066666L233.03581 143.93333L227.39244 172.8L211.79625 201.66667L203.29301 230.53334L191.26855 259.4" fill-rule="nonzero"/><path stroke="#274e13" stroke-width="2.0" stroke-linecap="butt" stroke-opacity="0.4" clip-path="url(#id_0)" d="M0 729.5555L357.2 -155.45018" fill-rule="nonzero"/><path fill="#4285f4" clip-path="url(#id_0)" d="M311.63553 -29.266666C311.63553 -27.609812 310.2924 -26.266666 308.63553 -26.266666C306.97867 -26.266666 305.63553 -27.609812 305.63553 -29.266666C305.63553 -30.923521 306.97867 -32.266666 308.63553 -32.266666C310.2924 -32.266666 311.63553 -30.923521 311.63553 -29.266666Z" fill-rule="nonzero"/><path fill="#4285f4" clip-path="url(#id_0)" d="M297.75677 -0.4C297.75677 1.2568543 296.41364 2.6 294.75677 2.6C293.09995 2.6 291.75677 1.2568543 291.75677 -0.4C291.75677 -2.0568542 293.09995 -3.4 294.75677 -3.4C296.41364 -3.4 297.75677 -2.0568542 297.75677 -0.4Z" fill-rule="nonzero"/><path fill="#4285f4" clip-path="url(#id_0)" d="M285.49185 28.466667C285.49185 30.123522 284.1487 31.466667 282.49185 31.466667C280.835 31.466667 279.49185 30.123522 279.49185 28.466667C279.49185 26.809813 280.835 25.466667 282.49185 25.466667C284.1487 25.466667 285.49185 26.809813 285.49185 28.466667Z" fill-rule="nonzero"/><path fill="#4285f4" clip-path="url(#id_0)" d="M274.57474 57.333332C274.57474 58.99019 273.23157 60.333332 271.57474 60.333332C269.91788 60.333332 268.57474 58.99019 268.57474 57.333332C268.57474 55.67648 269.91788 54.333332 271.57474 54.333332C273.23157 54.333332 274.57474 55.67648 274.57474 57.333332Z" fill-rule="nonzero"/><path fill="#4285f4" clip-path="url(#id_0)" d="M261.16223 86.2C261.16223 87.85686 259.8191 89.2 258.16223 89.2C256.5054 89.2 255.16225 87.85686 255.16225 86.2C255.16225 84.543144 256.5054 83.2 258.16223 83.2C259.8191 83.2 261.16223 84.543144 261.16223 86.2Z" fill-rule="nonzero"/><path fill="#4285f4" clip-path="url(#id_0)" d="M248.76683 115.066666C248.76683 116.72352 247.42368 118.066666 245.76683 118.066666C244.10997 118.066666 242.76683 116.72352 242.76683 115.066666C242.76683 113.40981 244.10997 112.066666 245.76683 112.066666C247.42368 112.066666 248.76683 113.40981 248.76683 115.066666Z" fill-rule="nonzero"/><path fill="#4285f4" clip-path="url(#id_0)" d="M236.03581 143.93333C236.03581 145.5902 234.69266 146.93333 233.03581 146.93333C231.37895 146.93333 230.03581 145.5902 230.03581 143.93333C230.03581 142.27647 231.37895 140.93333 233.03581 140.93333C234.69266 140.93333 236.03581 142.27647 236.03581 143.93333Z" fill-rule="nonzero"/><path fill="#4285f4" clip-path="url(#id_0)" d="M230.39244 172.8C230.39244 174.45685 229.04929 175.8 227.39244 175.8C225.73558 175.8 224.39244 174.45685 224.39244 172.8C224.39244 171.14314 225.73558 169.8 227.39244 169.8C229.04929 169.8 230.39244 171.14314 230.39244 172.8Z" fill-rule="nonzero"/><path fill="#4285f4" clip-path="url(#id_0)" d="M214.79625 201.66667C214.79625 203.32352 213.45311 204.66667 211.79625 204.66667C210.1394 204.66667 208.79625 203.32352 208.79625 201.66667C208.79625 200.00981 210.1394 198.66667 211.79625 198.66667C213.45311 198.66667 214.79625 200.00981 214.79625 201.66667Z" fill-rule="nonzero"/><path fill="#4285f4" clip-path="url(#id_0)" d="M206.29301 230.53334C206.29301 232.19019 204.94986 233.53334 203.29301 233.53334C201.63615 233.53334 200.29301 232.19019 200.29301 230.53334C200.29301 228.87648 201.63615 227.53334 203.29301 227.53334C204.94986 227.53334 206.29301 228.87648 206.29301 230.53334Z" fill-rule="nonzero"/><path fill="#4285f4" clip-path="url(#id_0)" d="M194.26855 259.4C194.26855 261.05685 192.92542 262.4 191.26855 262.4C189.6117 262.4 188.26855 261.05685 188.26855 259.4C188.26855 257.74313 189.6117 256.4 191.26855 256.4C192.92542 256.4 194.26855 257.74313 194.26855 259.4Z" fill-rule="nonzero"/><path stroke="#000000" stroke-width="1.0" stroke-linecap="butt" d="M83.5 531.5L83.5 519.5" fill-rule="nonzero"/><path stroke="#000000" stroke-width="1.0" stroke-linecap="butt" d="M117.5 531.5L117.5 519.5" fill-rule="nonzero"/><path stroke="#000000" stroke-width="1.0" stroke-linecap="butt" d="M152.5 531.5L152.5 519.5" fill-rule="nonzero"/><path stroke="#000000" stroke-width="1.0" stroke-linecap="butt" d="M186.5 531.5L186.5 519.5" fill-rule="nonzero"/><path stroke="#000000" stroke-width="1.0" stroke-linecap="butt" d="M220.5 531.5L220.5 519.5" fill-rule="nonzero"/><path stroke="#000000" stroke-width="1.0" stroke-linecap="butt" d="M254.5 531.5L254.5 519.5" fill-rule="nonzero"/><path stroke="#000000" stroke-width="1.0" stroke-linecap="butt" d="M288.5 531.5L288.5 519.5" fill-rule="nonzero"/><path stroke="#000000" stroke-width="1.0" stroke-linecap="butt" d="M323.5 531.5L323.5 519.5" fill-rule="nonzero"/><path stroke="#000000" stroke-width="1.0" stroke-linecap="butt" d="M357.5 531.5L357.5 519.5" fill-rule="nonzero"/><path stroke="#000000" stroke-width="1.0" stroke-linecap="butt" d="M77.5 519.5L83.5 519.5" fill-rule="nonzero"/><path stroke="#000000" stroke-width="1.0" stroke-linecap="butt" d="M77.5 490.5L83.5 490.5" fill-rule="nonzero"/><path stroke="#000000" stroke-width="1.0" stroke-linecap="butt" d="M77.5 461.5L83.5 461.5" fill-rule="nonzero"/><path stroke="#000000" stroke-width="1.0" stroke-linecap="butt" d="M77.5 432.5L83.5 432.5" fill-rule="nonzero"/><path stroke="#000000" stroke-width="1.0" stroke-linecap="butt" d="M77.5 403.5L83.5 403.5" fill-rule="nonzero"/><path stroke="#000000" stroke-width="1.0" stroke-linecap="butt" d="M77.5 374.5L83.5 374.5" fill-rule="nonzero"/><path stroke="#000000" stroke-width="1.0" stroke-linecap="butt" d="M77.5 346.5L83.5 346.5" fill-rule="nonzero"/><path stroke="#000000" stroke-width="1.0" stroke-linecap="butt" d="M77.5 317.5L83.5 317.5" fill-rule="nonzero"/><path stroke="#000000" stroke-width="1.0" stroke-linecap="butt" d="M77.5 288.5L83.5 288.5" fill-rule="nonzero"/><path stroke="#000000" stroke-width="1.0" stroke-linecap="butt" d="M77.5 259.5L83.5 259.5" fill-rule="nonzero"/><path stroke="#000000" stroke-width="1.0" stroke-linecap="butt" d="M77.5 230.5L83.5 230.5" fill-rule="nonzero"/><path stroke="#000000" stroke-width="1.0" stroke-linecap="butt" d="M77.5 201.5L83.5 201.5" fill-rule="nonzero"/><path stroke="#000000" stroke-width="1.0" stroke-linecap="butt" d="M77.5 172.5L83.5 172.5" fill-rule="nonzero"/><path stroke="#000000" stroke-width="1.0" stroke-linecap="butt" d="M77.5 143.5L83.5 143.5" fill-rule="nonzero"/><path stroke="#000000" stroke-width="1.0" stroke-linecap="butt" d="M77.5 115.5L83.5 115.5" fill-rule="nonzero"/><path stroke="#000000" stroke-width="1.0" stroke-linecap="butt" d="M77.5 86.5L83.5 86.5" fill-rule="nonzero"/><path stroke="#000000" stroke-width="1.0" stroke-linecap="butt" d="M77.5 57.5L83.5 57.5" fill-rule="nonzero"/><path fill="#000000" d="M195.46875 580.2L194.42188 580.2L194.42188 573.48126Q194.03125 573.84064 193.40625 574.21564Q192.79688 574.575 192.3125 574.7469L192.3125 573.73126Q193.1875 573.3094 193.84375 572.73126Q194.51562 572.1375 194.79688 571.575L195.46875 571.575L195.46875 580.2ZM198.0 580.34064L200.48438 571.46564L201.32812 571.46564L198.84375 580.34064L198.0 580.34064ZM202.125 580.2L202.125 571.60626L203.25 571.60626L203.25 580.2L202.125 580.2ZM209.8125 582.73126Q208.9375 581.6219 208.32812 580.15314Q207.73438 578.66876 207.73438 577.09064Q207.73438 575.7 208.17188 574.41876Q208.70312 572.9344 209.8125 571.46564L210.5625 571.46564Q209.85938 572.6844 209.625 573.2Q209.26562 574.0125 209.0625 574.8875Q208.8125 575.98126 208.8125 577.09064Q208.8125 579.91876 210.5625 582.73126L209.8125 582.73126ZM215.46875 580.2L214.42188 580.2L214.42188 573.48126Q214.03125 573.84064 213.40625 574.21564Q212.79688 574.575 212.3125 574.7469L212.3125 573.73126Q213.1875 573.3094 213.84375 572.73126Q214.51562 572.1375 214.79688 571.575L215.46875 571.575L215.46875 580.2ZM218.0 580.34064L220.48438 571.46564L221.32812 571.46564L218.84375 580.34064L218.0 580.34064ZM225.85938 579.4344Q225.26562 579.9344 224.71875 580.1375Q224.1875 580.34064 223.5625 580.34064Q222.53125 580.34064 221.98438 579.84064Q221.4375 579.34064 221.4375 578.5594Q221.4375 578.10626 221.64062 577.73126Q221.84375 577.34064 222.1875 577.1219Q222.53125 576.8875 222.95312 576.77814Q223.25 576.6844 223.89062 576.60626Q225.15625 576.46564 225.76562 576.2469Q225.76562 576.02814 225.76562 575.98126Q225.76562 575.325 225.46875 575.0594Q225.0625 574.71564 224.26562 574.71564Q223.53125 574.71564 223.17188 574.98126Q222.8125 575.23126 222.64062 575.8875L221.60938 575.7469Q221.75 575.09064 222.07812 574.6844Q222.40625 574.27814 223.01562 574.0594Q223.625 573.84064 224.42188 573.84064Q225.21875 573.84064 225.71875 574.02814Q226.21875 574.21564 226.45312 574.4969Q226.6875 574.77814 226.78125 575.21564Q226.82812 575.48126 226.82812 576.1844L226.82812 577.59064Q226.82812 579.0594 226.89062 579.45Q226.96875 579.84064 227.17188 580.2L226.0625 580.2Q225.90625 579.8719 225.85938 579.4344ZM225.76562 577.075Q225.1875 577.3094 224.04688 577.48126Q223.39062 577.575 223.125 577.7Q222.85938 577.8094 222.70312 578.02814Q222.5625 578.2469 222.5625 578.52814Q222.5625 578.95 222.875 579.23126Q223.20312 579.5125 223.8125 579.5125Q224.42188 579.5125 224.89062 579.2469Q225.375 578.98126 225.59375 578.5125Q225.76562 578.15314 225.76562 577.46564L225.76562 577.075ZM228.79688 580.2L228.79688 573.98126L229.73438 573.98126L229.73438 574.85626Q230.03125 574.3875 230.51562 574.1219Q231.0 573.84064 231.625 573.84064Q232.3125 573.84064 232.75 574.1219Q233.20312 574.40314 233.375 574.91876Q234.125 573.84064 235.29688 573.84064Q236.23438 573.84064 236.71875 574.35626Q237.21875 574.85626 237.21875 575.9344L237.21875 580.2L236.17188 580.2L236.17188 576.27814Q236.17188 575.65314 236.0625 575.3719Q235.96875 575.09064 235.70312 574.91876Q235.4375 574.7469 235.0625 574.7469Q234.40625 574.7469 233.96875 575.1844Q233.54688 575.6219 233.54688 576.59064L233.54688 580.2L232.48438 580.2L232.48438 576.15314Q232.48438 575.45 232.21875 575.10626Q231.96875 574.7469 231.39062 574.7469Q230.9375 574.7469 230.5625 574.98126Q230.1875 575.21564 230.01562 575.66876Q229.84375 576.1219 229.84375 576.96564L229.84375 580.2L228.79688 580.2ZM239.79688 582.59064L239.79688 573.98126L240.75 573.98126L240.75 574.77814Q241.09375 574.3094 241.51562 574.075Q241.95312 573.84064 242.5625 573.84064Q243.35938 573.84064 243.96875 574.2469Q244.57812 574.65314 244.875 575.40314Q245.1875 576.15314 245.1875 577.04376Q245.1875 577.9969 244.84375 578.7625Q244.51562 579.52814 243.85938 579.9344Q243.20312 580.34064 242.48438 580.34064Q241.95312 580.34064 241.53125 580.1219Q241.10938 579.8875 240.84375 579.5594L240.84375 582.59064L239.79688 582.59064ZM240.75 577.1219Q240.75 578.325 241.23438 578.90314Q241.71875 579.46564 242.40625 579.46564Q243.10938 579.46564 243.60938 578.8719Q244.10938 578.27814 244.10938 577.02814Q244.10938 575.84064 243.625 575.2625Q243.14062 574.66876 242.45312 574.66876Q241.78125 574.66876 241.26562 575.29376Q240.75 575.91876 240.75 577.1219ZM247.48438 582.73126L246.73438 582.73126Q248.48438 579.91876 248.48438 577.09064Q248.48438 575.9969 248.23438 574.90314Q248.03125 574.02814 247.67188 573.21564Q247.4375 572.7 246.73438 571.46564L247.48438 571.46564Q248.57812 572.9344 249.10938 574.41876Q249.5625 575.7 249.5625 577.09064Q249.5625 578.66876 248.95312 580.15314Q248.34375 581.6219 247.48438 582.73126Z" fill-rule="nonzero"/><path fill="#000000" d="M28.878138 314.32916Q29.425013 313.5323 29.675013 312.87604L30.471888 313.20416Q30.128138 314.12604 29.409388 315.0479Q29.940638 316.00104 29.940638 317.1573Q29.940638 318.32916 29.378138 319.2823Q28.815638 320.2198 27.800013 320.7354Q26.784388 321.25104 25.503138 321.25104Q24.237513 321.25104 23.190638 320.7354Q22.143763 320.2198 21.596888 319.26666Q21.050013 318.31354 21.050013 317.14166Q21.050013 315.95416 21.628138 315.00104Q22.190638 314.0323 23.206263 313.5323Q24.221888 313.0323 25.503138 313.0323Q26.565638 313.0323 27.409388 313.3604Q28.253138 313.6729 28.878138 314.32916ZM27.425013 316.82916Q27.706263 315.8448 28.253138 315.20416Q27.331263 314.20416 25.503138 314.20416Q24.456263 314.20416 23.675013 314.56354Q22.893763 314.9229 22.471888 315.6104Q22.034388 316.2823 22.034388 317.12604Q22.034388 318.4073 22.909388 319.25104Q23.768763 320.07916 25.503138 320.07916Q27.175013 320.07916 28.081263 319.25104Q28.971888 318.4229 28.971888 317.12604Q28.971888 316.51666 28.737513 315.9854Q28.393763 316.51666 28.253138 317.1104L27.425013 316.82916ZM32.33126 306.95416Q31.221888 307.82916 29.753138 308.43854Q28.268763 309.0323 26.690638 309.0323Q25.300013 309.0323 24.018763 308.5948Q22.534388 308.06354 21.065638 306.95416L21.065638 306.20416Q22.284388 306.9073 22.800013 307.14166Q23.612513 307.50104 24.487513 307.70416Q25.581263 307.95416 26.690638 307.95416Q29.518763 307.95416 32.33126 306.20416L32.33126 306.95416ZM29.800013 304.9698L23.581263 304.9698L23.581263 304.0323L24.456263 304.0323Q23.987513 303.7354 23.721888 303.25104Q23.440638 302.76666 23.440638 302.14166Q23.440638 301.45416 23.721888 301.01666Q24.003138 300.56354 24.518763 300.39166Q23.440638 299.64166 23.440638 298.4698Q23.440638 297.5323 23.956263 297.0479Q24.456263 296.5479 25.534388 296.5479L29.800013 296.5479L29.800013 297.5948L25.878138 297.5948Q25.253138 297.5948 24.971888 297.70416Q24.690638 297.7979 24.518763 298.06354Q24.346888 298.32916 24.346888 298.70416Q24.346888 299.3604 24.784388 299.7979Q25.221888 300.2198 26.190638 300.2198L29.800013 300.2198L29.800013 301.2823L25.753138 301.2823Q25.050013 301.2823 24.706263 301.5479Q24.346888 301.7979 24.346888 302.37604Q24.346888 302.82916 24.581263 303.20416Q24.815638 303.57916 25.268763 303.75104Q25.721888 303.9229 26.565638 303.9229L29.800013 303.9229L29.800013 304.9698ZM29.800013 293.9698L23.581263 293.9698L23.581263 293.0323L24.456263 293.0323Q23.987513 292.7354 23.721888 292.25104Q23.440638 291.76666 23.440638 291.14166Q23.440638 290.45416 23.721888 290.01666Q24.003138 289.56354 24.518763 289.39166Q23.440638 288.64166 23.440638 287.4698Q23.440638 286.5323 23.956263 286.0479Q24.456263 285.5479 25.534388 285.5479L29.800013 285.5479L29.800013 286.5948L25.878138 286.5948Q25.253138 286.5948 24.971888 286.70416Q24.690638 286.7979 24.518763 287.06354Q24.346888 287.32916 24.346888 287.70416Q24.346888 288.3604 24.784388 288.7979Q25.221888 289.2198 26.190638 289.2198L29.800013 289.2198L29.800013 290.2823L25.753138 290.2823Q25.050013 290.2823 24.706263 290.5479Q24.346888 290.7979 24.346888 291.37604Q24.346888 291.82916 24.581263 292.20416Q24.815638 292.57916 25.268763 292.75104Q25.721888 292.9229 26.565638 292.9229L29.800013 292.9229L29.800013 293.9698ZM32.33126 282.2823L32.33126 283.0323Q29.518763 281.2823 26.690638 281.2823Q25.596888 281.2823 24.503138 281.5323Q23.628138 281.7354 22.815638 282.0948Q22.300013 282.32916 21.065638 283.0323L21.065638 282.2823Q22.534388 281.18854 24.018763 280.6573Q25.300013 280.20416 26.690638 280.20416Q28.268763 280.20416 29.753138 280.81354Q31.221888 281.4229 32.33126 282.2823Z" fill-rule="nonzero"/><path fill="#000000" d="M65.3 518.96564Q65.3 517.4344 65.6125 516.5125Q65.925 515.575 66.53438 515.075Q67.15938 514.575 68.09688 514.575Q68.78438 514.575 69.3 514.85626Q69.83125 515.1375 70.175 515.66876Q70.51875 516.1844 70.70625 516.9344Q70.89375 517.6844 70.89375 518.96564Q70.89375 520.48126 70.58125 521.40314Q70.28438 522.325 69.65938 522.84064Q69.05 523.34064 68.09688 523.34064Q66.8625 523.34064 66.14375 522.45Q65.3 521.3875 65.3 518.96564ZM66.37813 518.96564Q66.37813 521.075 66.87813 521.77814Q67.37813 522.48126 68.09688 522.48126Q68.83125 522.48126 69.31563 521.77814Q69.81563 521.075 69.81563 518.96564Q69.81563 516.84064 69.31563 516.15314Q68.83125 515.45 68.08125 515.45Q67.3625 515.45 66.925 516.0594Q66.37813 516.84064 66.37813 518.96564Z" fill-rule="nonzero"/><path fill="#000000" d="M69.26875 494.33334L68.22188 494.33334L68.22188 487.6146Q67.83125 487.97397 67.20625 488.34897Q66.59688 488.70834 66.1125 488.88022L66.1125 487.8646Q66.9875 487.44272 67.64375 486.8646Q68.31563 486.27084 68.59688 485.70834L69.26875 485.70834L69.26875 494.33334Z" fill-rule="nonzero"/><path fill="#000000" d="M70.84688 464.45105L70.84688 465.46667L65.15938 465.46667Q65.15938 465.09167 65.28438 464.7323Q65.50313 464.15417 65.97188 463.59167Q66.45625 463.02917 67.3625 462.2948Q68.76875 461.13855 69.25313 460.46667Q69.75313 459.7948 69.75313 459.20105Q69.75313 458.57605 69.3 458.15417Q68.84688 457.71667 68.12813 457.71667Q67.3625 457.71667 66.90938 458.1698Q66.45625 458.62292 66.44063 459.43542L65.3625 459.32605Q65.47188 458.1073 66.19063 457.4823Q66.925 456.84167 68.15938 456.84167Q69.39375 456.84167 70.1125 457.52917Q70.83125 458.21667 70.83125 459.2323Q70.83125 459.74792 70.6125 460.24792Q70.40938 460.7323 69.90938 461.2948Q69.425 461.84167 68.3 462.7948Q67.34688 463.59167 67.06563 463.88855Q66.8 464.1698 66.62813 464.45105L70.84688 464.45105Z" fill-rule="nonzero"/><path fill="#000000" d="M65.3 434.33438L66.3625 434.19376Q66.53438 435.08438 66.97188 435.49063Q67.40938 435.88126 68.03438 435.88126Q68.78438 435.88126 69.3 435.36563Q69.81563 434.85 69.81563 434.08438Q69.81563 433.36563 69.33125 432.89688Q68.8625 432.4125 68.12813 432.4125Q67.83125 432.4125 67.37813 432.5375L67.50313 431.6Q67.6125 431.61563 67.675 431.61563Q68.34688 431.61563 68.87813 431.27188Q69.425 430.9125 69.425 430.17813Q69.425 429.6 69.03438 429.225Q68.64375 428.83438 68.01875 428.83438Q67.40938 428.83438 66.9875 429.225Q66.58125 429.61563 66.47188 430.38126L65.40938 430.19376Q65.59688 429.14688 66.28438 428.56876Q66.97188 427.975 67.9875 427.975Q68.69063 427.975 69.28438 428.2875Q69.87813 428.58438 70.19063 429.1Q70.50313 429.61563 70.50313 430.20938Q70.50313 430.75626 70.20625 431.225Q69.90938 431.67813 69.33125 431.94376Q70.08125 432.11563 70.50313 432.67813Q70.925 433.225 70.925 434.06876Q70.925 435.19376 70.09688 435.975Q69.28438 436.75626 68.03438 436.75626Q66.90938 436.75626 66.15938 436.08438Q65.40938 435.39688 65.3 434.33438Z" fill-rule="nonzero"/><path fill="#000000" d="M68.675 407.73334L68.675 405.67084L64.95625 405.67084L64.95625 404.7021L68.87813 399.1396L69.7375 399.1396L69.7375 404.7021L70.89375 404.7021L70.89375 405.67084L69.7375 405.67084L69.7375 407.73334L68.675 407.73334ZM68.675 404.7021L68.675 400.8427L65.9875 404.7021L68.675 404.7021Z" fill-rule="nonzero"/><path fill="#000000" d="M65.3 376.61667L66.40938 376.52292Q66.53438 377.33542 66.97188 377.74167Q67.425 378.14792 68.06563 378.14792Q68.81563 378.14792 69.34688 377.5698Q69.87813 376.99167 69.87813 376.05417Q69.87813 375.14792 69.3625 374.6323Q68.8625 374.10104 68.03438 374.10104Q67.53438 374.10104 67.1125 374.33542Q66.70625 374.5698 66.47188 374.92917L65.4875 374.80417L66.31563 370.39792L70.59688 370.39792L70.59688 371.39792L67.15938 371.39792L66.70625 373.71042Q67.47188 373.16354 68.31563 373.16354Q69.44063 373.16354 70.20625 373.9448Q70.9875 374.72604 70.9875 375.96042Q70.9875 377.11667 70.31563 377.97604Q69.4875 379.0073 68.06563 379.0073Q66.89375 379.0073 66.14375 378.35104Q65.40938 377.6948 65.3 376.61667Z" fill-rule="nonzero"/><path fill="#000000" d="M70.76875 343.51562L69.72188 343.59375Q69.58125 342.96875 69.33125 342.6875Q68.89375 342.23438 68.26875 342.23438Q67.76875 342.23438 67.37813 342.51562Q66.89375 342.89062 66.59688 343.59375Q66.31563 344.28125 66.3 345.5625Q66.675 344.98438 67.22188 344.70312Q67.78438 344.42188 68.39375 344.42188Q69.44063 344.42188 70.175 345.20312Q70.925 345.98438 70.925 347.20312Q70.925 348.01562 70.56563 348.71875Q70.22188 349.40625 69.6125 349.78125Q69.00313 350.14062 68.2375 350.14062Q66.90938 350.14062 66.08125 349.17188Q65.25313 348.20312 65.25313 345.98438Q65.25313 343.48438 66.175 342.35938Q66.97188 341.375 68.33125 341.375Q69.34688 341.375 69.9875 341.95312Q70.64375 342.51562 70.76875 343.51562ZM66.47188 347.21875Q66.47188 347.76562 66.69063 348.26562Q66.925 348.75 67.33125 349.01562Q67.75313 349.28125 68.22188 349.28125Q68.87813 349.28125 69.3625 348.75Q69.84688 348.20312 69.84688 347.28125Q69.84688 346.39062 69.3625 345.875Q68.89375 345.35938 68.175 345.35938Q67.45625 345.35938 66.95625 345.875Q66.47188 346.39062 66.47188 347.21875Z" fill-rule="nonzero"/><path fill="#000000" d="M65.3625 313.66458L65.3625 312.64896L70.925 312.64896L70.925 313.47708Q70.1125 314.35208 69.3 315.8052Q68.50313 317.2427 68.06563 318.77396Q67.7375 319.85208 67.65938 321.13333L66.56563 321.13333Q66.58125 320.1177 66.95625 318.6802Q67.34688 317.2427 68.05 315.91458Q68.76875 314.58646 69.58125 313.66458L65.3625 313.66458Z" fill-rule="nonzero"/><path fill="#000000" d="M66.925 287.6104Q66.26875 287.3604 65.94063 286.9229Q65.62813 286.4698 65.62813 285.8604Q65.62813 284.9229 66.3 284.2823Q66.9875 283.64166 68.09688 283.64166Q69.22188 283.64166 69.90938 284.2979Q70.59688 284.95416 70.59688 285.89166Q70.59688 286.4854 70.28438 286.9229Q69.97188 287.3604 69.33125 287.6104Q70.12813 287.8604 70.53438 288.43854Q70.94063 289.01666 70.94063 289.81354Q70.94063 290.9073 70.15938 291.6573Q69.39375 292.4073 68.1125 292.4073Q66.84688 292.4073 66.06563 291.6573Q65.28438 290.9073 65.28438 289.7823Q65.28438 288.93854 65.70625 288.37604Q66.14375 287.81354 66.925 287.6104ZM66.70625 285.81354Q66.70625 286.4229 67.09688 286.81354Q67.50313 287.20416 68.12813 287.20416Q68.7375 287.20416 69.12813 286.82916Q69.51875 286.43854 69.51875 285.87604Q69.51875 285.2979 69.1125 284.9073Q68.70625 284.50104 68.1125 284.50104Q67.50313 284.50104 67.09688 284.89166Q66.70625 285.2823 66.70625 285.81354ZM66.37813 289.7823Q66.37813 290.2354 66.58125 290.6573Q66.8 291.07916 67.22188 291.31354Q67.64375 291.5479 68.12813 291.5479Q68.87813 291.5479 69.3625 291.06354Q69.8625 290.57916 69.8625 289.82916Q69.8625 289.06354 69.3625 288.56354Q68.8625 288.06354 68.09688 288.06354Q67.34688 288.06354 66.8625 288.56354Q66.37813 289.0479 66.37813 289.7823Z" fill-rule="nonzero"/><path fill="#000000" d="M65.45625 261.41562L66.47188 261.32187Q66.59688 262.04062 66.95625 262.36874Q67.33125 262.68124 67.89375 262.68124Q68.37813 262.68124 68.7375 262.4625Q69.1125 262.22812 69.34688 261.86874Q69.58125 261.49374 69.7375 260.86874Q69.89375 260.22812 69.89375 259.57187Q69.89375 259.49374 69.89375 259.35312Q69.58125 259.85312 69.03438 260.18124Q68.4875 260.49374 67.84688 260.49374Q66.76875 260.49374 66.03438 259.72812Q65.3 258.94687 65.3 257.68124Q65.3 256.36874 66.06563 255.57187Q66.84688 254.775 68.00313 254.775Q68.83125 254.775 69.51875 255.22812Q70.22188 255.68124 70.58125 256.525Q70.94063 257.35312 70.94063 258.93124Q70.94063 260.57187 70.58125 261.55624Q70.2375 262.525 69.51875 263.04062Q68.81563 263.54062 67.87813 263.54062Q66.8625 263.54062 66.22188 262.99374Q65.58125 262.43124 65.45625 261.41562ZM69.76875 257.61874Q69.76875 256.7125 69.28438 256.18124Q68.81563 255.65 68.12813 255.65Q67.425 255.65 66.89375 256.22812Q66.37813 256.79062 66.37813 257.7125Q66.37813 258.525 66.87813 259.04062Q67.37813 259.55624 68.09688 259.55624Q68.83125 259.55624 69.3 259.04062Q69.76875 258.525 69.76875 257.61874Z" fill-rule="nonzero"/><path fill="#000000" d="M62.26875 234.53334L61.221874 234.53334L61.221874 227.81459Q60.83125 228.17397 60.20625 228.54897Q59.596874 228.90834 59.1125 229.08022L59.1125 228.06459Q59.9875 227.64272 60.64375 227.06459Q61.315624 226.47084 61.596874 225.90834L62.26875 225.90834L62.26875 234.53334ZM65.3 230.29897Q65.3 228.76772 65.6125 227.84584Q65.925 226.90834 66.53438 226.40834Q67.15938 225.90834 68.09688 225.90834Q68.78438 225.90834 69.3 226.18959Q69.83125 226.47084 70.175 227.00209Q70.51875 227.51772 70.70625 228.26772Q70.89375 229.01772 70.89375 230.29897Q70.89375 231.81459 70.58125 232.73647Q70.28438 233.65834 69.65938 234.17397Q69.05 234.67397 68.09688 234.67397Q66.8625 234.67397 66.14375 233.78334Q65.3 232.72084 65.3 230.29897ZM66.37813 230.29897Q66.37813 232.40834 66.87813 233.11147Q67.37813 233.81459 68.09688 233.81459Q68.83125 233.81459 69.31563 233.11147Q69.81563 232.40834 69.81563 230.29897Q69.81563 228.17397 69.31563 227.48647Q68.83125 226.78334 68.08125 226.78334Q67.3625 226.78334 66.925 227.39272Q66.37813 228.17397 66.37813 230.29897Z" fill-rule="nonzero"/><path fill="#000000" d="M62.26875 205.66667L61.221874 205.66667L61.221874 198.94792Q60.83125 199.3073 60.20625 199.6823Q59.596874 200.04167 59.1125 200.21355L59.1125 199.19792Q59.9875 198.77605 60.64375 198.19792Q61.315624 197.60417 61.596874 197.04167L62.26875 197.04167L62.26875 205.66667ZM69.26875 205.66667L68.22188 205.66667L68.22188 198.94792Q67.83125 199.3073 67.20625 199.6823Q66.59688 200.04167 66.1125 200.21355L66.1125 199.19792Q66.9875 198.77605 67.64375 198.19792Q68.31563 197.60417 68.59688 197.04167L69.26875 197.04167L69.26875 205.66667Z" fill-rule="nonzero"/><path fill="#000000" d="M62.26875 176.8L61.221874 176.8L61.221874 170.08125Q60.83125 170.44063 60.20625 170.81563Q59.596874 171.175 59.1125 171.34688L59.1125 170.33125Q59.9875 169.90938 60.64375 169.33125Q61.315624 168.7375 61.596874 168.175L62.26875 168.175L62.26875 176.8ZM70.84688 175.78438L70.84688 176.8L65.15938 176.8Q65.15938 176.425 65.28438 176.06563Q65.50313 175.4875 65.97188 174.925Q66.45625 174.3625 67.3625 173.62813Q68.76875 172.47188 69.25313 171.8Q69.75313 171.12813 69.75313 170.53438Q69.75313 169.90938 69.3 169.4875Q68.84688 169.05 68.12813 169.05Q67.3625 169.05 66.90938 169.50313Q66.45625 169.95625 66.44063 170.76875L65.3625 170.65938Q65.47188 169.44063 66.19063 168.81563Q66.925 168.175 68.15938 168.175Q69.39375 168.175 70.1125 168.8625Q70.83125 169.55 70.83125 170.56563Q70.83125 171.08125 70.6125 171.58125Q70.40938 172.06563 69.90938 172.62813Q69.425 173.175 68.3 174.12813Q67.34688 174.925 67.06563 175.22188Q66.8 175.50313 66.62813 175.78438L70.84688 175.78438Z" fill-rule="nonzero"/><path fill="#000000" d="M62.26875 147.93333L61.221874 147.93333L61.221874 141.21458Q60.83125 141.57396 60.20625 141.94896Q59.596874 142.30833 59.1125 142.48021L59.1125 141.46458Q59.9875 141.04271 60.64375 140.46458Q61.315624 139.87083 61.596874 139.30833L62.26875 139.30833L62.26875 147.93333ZM65.3 145.66771L66.3625 145.52708Q66.53438 146.41771 66.97188 146.82396Q67.40938 147.21458 68.03438 147.21458Q68.78438 147.21458 69.3 146.69896Q69.81563 146.18333 69.81563 145.41771Q69.81563 144.69896 69.33125 144.23021Q68.8625 143.74583 68.12813 143.74583Q67.83125 143.74583 67.37813 143.87083L67.50313 142.93333Q67.6125 142.94896 67.675 142.94896Q68.34688 142.94896 68.87813 142.60521Q69.425 142.24583 69.425 141.51146Q69.425 140.93333 69.03438 140.55833Q68.64375 140.16771 68.01875 140.16771Q67.40938 140.16771 66.9875 140.55833Q66.58125 140.94896 66.47188 141.71458L65.40938 141.52708Q65.59688 140.48021 66.28438 139.90208Q66.97188 139.30833 67.9875 139.30833Q68.69063 139.30833 69.28438 139.62083Q69.87813 139.91771 70.19063 140.43333Q70.50313 140.94896 70.50313 141.54271Q70.50313 142.08958 70.20625 142.55833Q69.90938 143.01146 69.33125 143.27708Q70.08125 143.44896 70.50313 144.01146Q70.925 144.55833 70.925 145.40208Q70.925 146.52708 70.09688 147.30833Q69.28438 148.08958 68.03438 148.08958Q66.90938 148.08958 66.15938 147.41771Q65.40938 146.73021 65.3 145.66771Z" fill-rule="nonzero"/><path fill="#000000" d="M62.26875 119.066666L61.221874 119.066666L61.221874 112.347916Q60.83125 112.70729 60.20625 113.08229Q59.596874 113.441666 59.1125 113.61354L59.1125 112.597916Q59.9875 112.17604 60.64375 111.597916Q61.315624 111.004166 61.596874 110.441666L62.26875 110.441666L62.26875 119.066666ZM68.675 119.066666L68.675 117.004166L64.95625 117.004166L64.95625 116.035416L68.87813 110.472916L69.7375 110.472916L69.7375 116.035416L70.89375 116.035416L70.89375 117.004166L69.7375 117.004166L69.7375 119.066666L68.675 119.066666ZM68.675 116.035416L68.675 112.17604L65.9875 116.035416L68.675 116.035416Z" fill-rule="nonzero"/><path fill="#000000" d="M62.26875 90.2L61.221874 90.2L61.221874 83.48125Q60.83125 83.84062 60.20625 84.21562Q59.596874 84.575 59.1125 84.74687L59.1125 83.73125Q59.9875 83.30937 60.64375 82.73125Q61.315624 82.1375 61.596874 81.575L62.26875 81.575L62.26875 90.2ZM65.3 87.95L66.40938 87.85625Q66.53438 88.66875 66.97188 89.075Q67.425 89.48125 68.06563 89.48125Q68.81563 89.48125 69.34688 88.90312Q69.87813 88.325 69.87813 87.3875Q69.87813 86.48125 69.3625 85.96562Q68.8625 85.43437 68.03438 85.43437Q67.53438 85.43437 67.1125 85.66875Q66.70625 85.90312 66.47188 86.2625L65.4875 86.1375L66.31563 81.73125L70.59688 81.73125L70.59688 82.73125L67.15938 82.73125L66.70625 85.04375Q67.47188 84.49687 68.31563 84.49687Q69.44063 84.49687 70.20625 85.27812Q70.9875 86.05937 70.9875 87.29375Q70.9875 88.45 70.31563 89.30937Q69.4875 90.34062 68.06563 90.34062Q66.89375 90.34062 66.14375 89.68437Q65.40938 89.02812 65.3 87.95Z" fill-rule="nonzero"/><path fill="#000000" d="M62.26875 61.333332L61.221874 61.333332L61.221874 54.614582Q60.83125 54.973957 60.20625 55.348957Q59.596874 55.708332 59.1125 55.880207L59.1125 54.864582Q59.9875 54.442707 60.64375 53.864582Q61.315624 53.270832 61.596874 52.708332L62.26875 52.708332L62.26875 61.333332ZM70.76875 54.848957L69.72188 54.927082Q69.58125 54.302082 69.33125 54.020832Q68.89375 53.567707 68.26875 53.567707Q67.76875 53.567707 67.37813 53.848957Q66.89375 54.223957 66.59688 54.927082Q66.31563 55.614582 66.3 56.895832Q66.675 56.317707 67.22188 56.036457Q67.78438 55.755207 68.39375 55.755207Q69.44063 55.755207 70.175 56.536457Q70.925 57.317707 70.925 58.536457Q70.925 59.348957 70.56563 60.052082Q70.22188 60.739582 69.6125 61.114582Q69.00313 61.473957 68.2375 61.473957Q66.90938 61.473957 66.08125 60.505207Q65.25313 59.536457 65.25313 57.317707Q65.25313 54.817707 66.175 53.692707Q66.97188 52.708332 68.33125 52.708332Q69.34688 52.708332 69.9875 53.286457Q70.64375 53.848957 70.76875 54.848957ZM66.47188 58.552082Q66.47188 59.098957 66.69063 59.598957Q66.925 60.083332 67.33125 60.348957Q67.75313 60.614582 68.22188 60.614582Q68.87813 60.614582 69.3625 60.083332Q69.84688 59.536457 69.84688 58.614582Q69.84688 57.723957 69.3625 57.208332Q68.89375 56.692707 68.175 56.692707Q67.45625 56.692707 66.95625 57.208332Q66.47188 57.723957 66.47188 58.552082Z" fill-rule="nonzero"/><path fill="#000000" d="M80.8 543.96564Q80.8 542.4344 81.1125 541.5125Q81.425 540.575 82.03438 540.075Q82.65938 539.575 83.59688 539.575Q84.28438 539.575 84.8 539.85626Q85.33125 540.1375 85.675 540.66876Q86.01875 541.1844 86.20625 541.9344Q86.39375 542.6844 86.39375 543.96564Q86.39375 545.48126 86.08125 546.40314Q85.78438 547.325 85.15938 547.84064Q84.55 548.34064 83.59688 548.34064Q82.3625 548.34064 81.64375 547.45Q80.8 546.3875 80.8 543.96564ZM81.87813 543.96564Q81.87813 546.075 82.37813 546.77814Q82.87813 547.48126 83.59688 547.48126Q84.33125 547.48126 84.81563 546.77814Q85.31563 546.075 85.31563 543.96564Q85.31563 541.84064 84.81563 541.15314Q84.33125 540.45 83.58125 540.45Q82.8625 540.45 82.425 541.0594Q81.87813 541.84064 81.87813 543.96564Z" fill-rule="nonzero"/><path fill="#000000" d="M118.94375 548.2L117.89687 548.2L117.89687 541.48126Q117.50625 541.84064 116.88125 542.21564Q116.27187 542.575 115.7875 542.7469L115.7875 541.73126Q116.6625 541.3094 117.31875 540.73126Q117.99062 540.1375 118.27187 539.575L118.94375 539.575L118.94375 548.2Z" fill-rule="nonzero"/><path fill="#000000" d="M154.69687 547.1844L154.69687 548.2L149.00937 548.2Q149.00937 547.825 149.13437 547.46564Q149.35312 546.8875 149.82187 546.325Q150.30624 545.7625 151.2125 545.02814Q152.61874 543.8719 153.10312 543.2Q153.60312 542.52814 153.60312 541.9344Q153.60312 541.3094 153.15 540.8875Q152.69687 540.45 151.97812 540.45Q151.2125 540.45 150.75937 540.90314Q150.30624 541.35626 150.29062 542.16876L149.2125 542.0594Q149.32187 540.84064 150.04062 540.21564Q150.775 539.575 152.00937 539.575Q153.24374 539.575 153.9625 540.2625Q154.68124 540.95 154.68124 541.96564Q154.68124 542.48126 154.4625 542.98126Q154.25937 543.46564 153.75937 544.02814Q153.275 544.575 152.15 545.52814Q151.19687 546.325 150.91562 546.6219Q150.65 546.90314 150.47812 547.1844L154.69687 547.1844Z" fill-rule="nonzero"/><path fill="#000000" d="M183.325 545.9344L184.3875 545.79376Q184.55937 546.6844 184.99687 547.09064Q185.43437 547.48126 186.05937 547.48126Q186.80937 547.48126 187.325 546.96564Q187.84062 546.45 187.84062 545.6844Q187.84062 544.96564 187.35625 544.4969Q186.8875 544.0125 186.15312 544.0125Q185.85625 544.0125 185.40312 544.1375L185.52812 543.2Q185.6375 543.21564 185.7 543.21564Q186.37187 543.21564 186.90312 542.8719Q187.45 542.5125 187.45 541.77814Q187.45 541.2 187.05937 540.825Q186.66875 540.4344 186.04375 540.4344Q185.43437 540.4344 185.0125 540.825Q184.60625 541.21564 184.49687 541.98126L183.43437 541.79376Q183.62187 540.7469 184.30937 540.16876Q184.99687 539.575 186.0125 539.575Q186.71562 539.575 187.30937 539.8875Q187.90312 540.1844 188.21562 540.7Q188.52812 541.21564 188.52812 541.8094Q188.52812 542.35626 188.23125 542.825Q187.93437 543.27814 187.35625 543.54376Q188.10625 543.71564 188.52812 544.27814Q188.95 544.825 188.95 545.66876Q188.95 546.79376 188.12187 547.575Q187.30937 548.35626 186.05937 548.35626Q184.93437 548.35626 184.18437 547.6844Q183.43437 546.9969 183.325 545.9344Z" fill-rule="nonzero"/><path fill="#000000" d="M220.875 548.2L220.875 546.1375L217.15625 546.1375L217.15625 545.16876L221.07812 539.60626L221.9375 539.60626L221.9375 545.16876L223.09375 545.16876L223.09375 546.1375L221.9375 546.1375L221.9375 548.2L220.875 548.2ZM220.875 545.16876L220.875 541.3094L218.1875 545.16876L220.875 545.16876Z" fill-rule="nonzero"/><path fill="#000000" d="M251.675 545.95L252.78438 545.85626Q252.90938 546.66876 253.34688 547.075Q253.8 547.48126 254.44063 547.48126Q255.19063 547.48126 255.72188 546.90314Q256.2531 546.325 256.2531 545.3875Q256.2531 544.48126 255.7375 543.96564Q255.2375 543.4344 254.40938 543.4344Q253.90938 543.4344 253.4875 543.66876Q253.08125 543.90314 252.84688 544.2625L251.8625 544.1375L252.69063 539.73126L256.97186 539.73126L256.97186 540.73126L253.53438 540.73126L253.08125 543.04376Q253.84688 542.4969 254.69063 542.4969Q255.81563 542.4969 256.58124 543.27814Q257.3625 544.0594 257.3625 545.29376Q257.3625 546.45 256.6906 547.3094Q255.8625 548.34064 254.44063 548.34064Q253.26875 548.34064 252.51875 547.6844Q251.78438 547.02814 251.675 545.95Z" fill-rule="nonzero"/><path fill="#000000" d="M291.31876 541.71564L290.27188 541.79376Q290.13126 541.16876 289.88126 540.8875Q289.44376 540.4344 288.81876 540.4344Q288.31876 540.4344 287.92813 540.71564Q287.44376 541.09064 287.14688 541.79376Q286.86563 542.48126 286.85 543.7625Q287.225 543.1844 287.77188 542.90314Q288.33438 542.6219 288.94376 542.6219Q289.99063 542.6219 290.725 543.40314Q291.475 544.1844 291.475 545.40314Q291.475 546.21564 291.11563 546.91876Q290.77188 547.60626 290.1625 547.98126Q289.55313 548.34064 288.7875 548.34064Q287.45938 548.34064 286.63126 547.3719Q285.80313 546.40314 285.80313 544.1844Q285.80313 541.6844 286.725 540.5594Q287.52188 539.575 288.88126 539.575Q289.89688 539.575 290.5375 540.15314Q291.19376 540.71564 291.31876 541.71564ZM287.02188 545.41876Q287.02188 545.96564 287.24063 546.46564Q287.475 546.95 287.88126 547.21564Q288.30313 547.48126 288.77188 547.48126Q289.42813 547.48126 289.9125 546.95Q290.39688 546.40314 290.39688 545.48126Q290.39688 544.59064 289.9125 544.075Q289.44376 543.5594 288.725 543.5594Q288.00626 543.5594 287.50626 544.075Q287.02188 544.59064 287.02188 545.41876Z" fill-rule="nonzero"/><path fill="#000000" d="M320.0875 540.73126L320.0875 539.71564L325.65 539.71564L325.65 540.54376Q324.8375 541.41876 324.025 542.8719Q323.22812 544.3094 322.79062 545.84064Q322.4625 546.91876 322.38437 548.2L321.29062 548.2Q321.30624 547.1844 321.68124 545.7469Q322.07187 544.3094 322.775 542.98126Q323.49374 541.65314 324.30624 540.73126L320.0875 540.73126Z" fill-rule="nonzero"/><path fill="#000000" d="M355.825 543.54376Q355.16876 543.29376 354.84064 542.85626Q354.52814 542.40314 354.52814 541.79376Q354.52814 540.85626 355.2 540.21564Q355.8875 539.575 356.9969 539.575Q358.1219 539.575 358.8094 540.23126Q359.4969 540.8875 359.4969 541.825Q359.4969 542.41876 359.1844 542.85626Q358.8719 543.29376 358.23126 543.54376Q359.02814 543.79376 359.4344 544.3719Q359.84064 544.95 359.84064 545.7469Q359.84064 546.84064 359.0594 547.59064Q358.29376 548.34064 357.0125 548.34064Q355.7469 548.34064 354.96564 547.59064Q354.1844 546.84064 354.1844 545.71564Q354.1844 544.8719 354.60626 544.3094Q355.04376 543.7469 355.825 543.54376ZM355.60626 541.7469Q355.60626 542.35626 355.9969 542.7469Q356.40314 543.1375 357.02814 543.1375Q357.6375 543.1375 358.02814 542.7625Q358.41876 542.3719 358.41876 541.8094Q358.41876 541.23126 358.0125 540.84064Q357.60626 540.4344 357.0125 540.4344Q356.40314 540.4344 355.9969 540.825Q355.60626 541.21564 355.60626 541.7469ZM355.27814 545.71564Q355.27814 546.16876 355.48126 546.59064Q355.7 547.0125 356.1219 547.2469Q356.54376 547.48126 357.02814 547.48126Q357.77814 547.48126 358.2625 546.9969Q358.7625 546.5125 358.7625 545.7625Q358.7625 544.9969 358.2625 544.4969Q357.7625 543.9969 356.9969 543.9969Q356.2469 543.9969 355.7625 544.4969Q355.27814 544.98126 355.27814 545.71564Z" fill-rule="nonzero"/><path fill="#757575" d="M28.721874 32.565624Q29.76875 33.3 30.659374 33.628124L30.221874 34.690624Q28.9875 34.253124 27.753124 33.284374Q26.4875 34.003124 24.940624 34.003124Q23.39375 34.003124 22.128124 33.253124Q20.8625 32.4875 20.175 31.128124Q19.4875 29.76875 19.4875 28.065624Q19.4875 26.378124 20.175 24.9875Q20.8625 23.596874 22.128124 22.878124Q23.409374 22.14375 24.971874 22.14375Q26.565624 22.14375 27.83125 22.89375Q29.1125 23.64375 29.76875 25.003124Q30.440624 26.3625 30.440624 28.065624Q30.440624 29.471874 30.003124 30.6125Q29.58125 31.7375 28.721874 32.565624ZM25.378124 30.628124Q26.690624 31.003124 27.55 31.721874Q28.878124 30.503124 28.878124 28.065624Q28.878124 26.675 28.409374 25.64375Q27.940624 24.596874 27.01875 24.01875Q26.1125 23.440624 24.9875 23.440624Q23.284374 23.440624 22.159374 24.6125Q21.05 25.76875 21.05 28.065624Q21.05 30.3 22.159374 31.503124Q23.26875 32.690624 24.9875 32.690624Q25.8 32.690624 26.51875 32.39375Q25.8 31.925 25.01875 31.7375L25.378124 30.628124ZM38.159374 33.8L35.003124 25.503124L36.4875 25.503124L38.26875 30.471874Q38.565624 31.26875 38.8 32.14375Q38.9875 31.4875 39.33125 30.565624L41.175 25.503124L42.6125 25.503124L39.471874 33.8L38.159374 33.8ZM42.3 31.315624L43.690624 31.096874Q43.8 31.940624 44.33125 32.39375Q44.878124 32.83125 45.83125 32.83125Q46.8 32.83125 47.26875 32.440624Q47.7375 32.034374 47.7375 31.503124Q47.7375 31.034374 47.33125 30.753124Q47.034374 30.565624 45.89375 30.284374Q44.346874 29.89375 43.7375 29.6125Q43.14375 29.315624 42.83125 28.815624Q42.534374 28.315624 42.534374 27.70625Q42.534374 27.14375 42.784374 26.675Q43.034374 26.20625 43.471874 25.89375Q43.8 25.64375 44.3625 25.4875Q44.940624 25.315624 45.58125 25.315624Q46.565624 25.315624 47.3 25.596874Q48.034374 25.878124 48.378124 26.3625Q48.7375 26.83125 48.878124 27.64375L47.503124 27.83125Q47.409374 27.190624 46.95625 26.83125Q46.503124 26.471874 45.690624 26.471874Q44.721874 26.471874 44.3 26.8Q43.89375 27.1125 43.89375 27.534374Q43.89375 27.815624 44.065624 28.034374Q44.2375 28.253124 44.596874 28.409374Q44.815624 28.4875 45.846874 28.76875Q47.33125 29.159374 47.925 29.425Q48.51875 29.675 48.846874 30.159374Q49.190624 30.64375 49.190624 31.3625Q49.190624 32.065624 48.76875 32.690624Q48.3625 33.3 47.58125 33.64375Q46.815624 33.9875 45.846874 33.9875Q44.221874 33.9875 43.378124 33.315624Q42.534374 32.64375 42.3 31.315624ZM59.76875 33.8L58.3625 33.8L58.3625 24.83125Q57.846874 25.315624 57.01875 25.8Q56.20625 26.284374 55.55 26.534374L55.55 25.175Q56.721874 24.6125 57.596874 23.83125Q58.4875 23.034374 58.8625 22.3L59.76875 22.3L59.76875 33.8ZM62.8 34.003124L66.12813 22.14375L67.25313 22.14375L63.940624 34.003124L62.8 34.003124ZM68.3 33.8L68.3 22.346874L69.81563 22.346874L69.81563 33.8L68.3 33.8ZM79.19063 33.8L79.19063 26.596874L77.95625 26.596874L77.95625 25.503124L79.19063 25.503124L79.19063 24.6125Q79.19063 23.784374 79.34688 23.378124Q79.55 22.83125 80.05 22.4875Q80.56563 22.14375 81.4875 22.14375Q82.08125 22.14375 82.8 22.284374L82.59688 23.51875Q82.15938 23.440624 81.76875 23.440624Q81.12813 23.440624 80.8625 23.721874Q80.59688 23.9875 80.59688 24.7375L80.59688 25.503124L82.20625 25.503124L82.20625 26.596874L80.59688 26.596874L80.59688 33.8L79.19063 33.8ZM82.33125 29.64375Q82.33125 27.346874 83.6125 26.2375Q84.69063 25.315624 86.22188 25.315624Q87.94063 25.315624 89.01875 26.440624Q90.1125 27.55 90.1125 29.534374Q90.1125 31.128124 89.62813 32.05Q89.14375 32.971874 88.22188 33.4875Q87.31563 33.9875 86.22188 33.9875Q84.4875 33.9875 83.40938 32.878124Q82.33125 31.753124 82.33125 29.64375ZM83.78438 29.64375Q83.78438 31.2375 84.47188 32.034374Q85.175 32.83125 86.22188 32.83125Q87.26875 32.83125 87.95625 32.034374Q88.65938 31.2375 88.65938 29.596874Q88.65938 28.065624 87.95625 27.26875Q87.26875 26.471874 86.22188 26.471874Q85.175 26.471874 84.47188 27.26875Q83.78438 28.05 83.78438 29.64375ZM91.84688 33.8L91.84688 25.503124L93.1125 25.503124L93.1125 26.753124Q93.59688 25.878124 94.00313 25.596874Q94.40938 25.315624 94.90938 25.315624Q95.6125 25.315624 96.34688 25.76875L95.8625 27.065624Q95.34688 26.76875 94.83125 26.76875Q94.37813 26.76875 94.00313 27.05Q93.64375 27.315624 93.4875 27.815624Q93.25313 28.565624 93.25313 29.45625L93.25313 33.8L91.84688 33.8ZM105.76875 33.8L104.3625 33.8L104.3625 24.83125Q103.84688 25.315624 103.01875 25.8Q102.20625 26.284374 101.55 26.534374L101.55 25.175Q102.72188 24.6125 103.59688 23.83125Q104.4875 23.034374 104.8625 22.3L105.76875 22.3L105.76875 33.8ZM111.62813 27.58125Q110.75313 27.26875 110.33125 26.675Q109.90938 26.08125 109.90938 25.253124Q109.90938 24.003124 110.8 23.159374Q111.70625 22.3 113.20625 22.3Q114.70625 22.3 115.6125 23.175Q116.53438 24.034374 116.53438 25.284374Q116.53438 26.08125 116.1125 26.675Q115.69063 27.26875 114.84688 27.58125Q115.89375 27.925 116.44063 28.690624Q117.00313 29.45625 117.00313 30.51875Q117.00313 31.9875 115.95625 33.003124Q114.925 34.003124 113.22188 34.003124Q111.53438 34.003124 110.4875 33.003124Q109.45625 31.9875 109.45625 30.4875Q109.45625 29.3625 110.01875 28.6125Q110.58125 27.8625 111.62813 27.58125ZM111.34688 25.20625Q111.34688 26.01875 111.8625 26.534374Q112.39375 27.05 113.2375 27.05Q114.05 27.05 114.56563 26.534374Q115.08125 26.01875 115.08125 25.284374Q115.08125 24.503124 114.55 23.9875Q114.01875 23.45625 113.22188 23.45625Q112.40938 23.45625 111.87813 23.971874Q111.34688 24.4875 111.34688 25.20625ZM110.89375 30.4875Q110.89375 31.096874 111.175 31.659374Q111.47188 32.221874 112.03438 32.534374Q112.59688 32.83125 113.2375 32.83125Q114.25313 32.83125 114.90938 32.190624Q115.56563 31.534374 115.56563 30.534374Q115.56563 29.51875 114.87813 28.8625Q114.20625 28.190624 113.19063 28.190624Q112.20625 28.190624 111.55 28.846874Q110.89375 29.503124 110.89375 30.4875ZM122.9875 33.8L122.9875 22.346874L125.26875 22.346874L127.9875 30.45625Q128.3625 31.58125 128.53438 32.14375Q128.72188 31.51875 129.14375 30.315624L131.87813 22.346874L133.925 22.346874L133.925 33.8L132.45625 33.8L132.45625 24.20625L129.12813 33.8L127.76875 33.8L124.45625 24.05L124.45625 33.8L122.9875 33.8ZM136.08125 33.8L136.08125 22.346874L137.59688 22.346874L137.59688 27.05L143.55 27.05L143.55 22.346874L145.06563 22.346874L145.06563 33.8L143.55 33.8L143.55 28.39375L137.59688 28.39375L137.59688 33.8L136.08125 33.8ZM146.1125 33.8L146.1125 32.659374L151.39375 26.596874Q150.50313 26.64375 149.81563 26.64375L146.425 26.64375L146.425 25.503124L153.20625 25.503124L153.20625 26.425L148.72188 31.690624L147.84688 32.659374Q148.8 32.58125 149.62813 32.58125L153.45625 32.58125L153.45625 33.8L146.1125 33.8Z" fill-rule="nonzero"/></svg>